<svg width="354" height="88" xmlns="http://www.w3.org/2000/svg" xmlns:xlink="http://www.w3.org/1999/xlink" xml:space="preserve" overflow="hidden"><defs><clipPath id="clip0"><rect x="0" y="0" width="354" height="88"/></clipPath></defs><g clip-path="url(#clip0)"><path d="M34.1612 72.5288 34.1612 81.7701C34.1612 84.7656 35.3721 86.104 38.1127 86.104 40.8532 86.104 42.0641 84.7019 42.0641 81.7701L42.0641 72.5288 43.8487 72.5288 43.8487 81.7701C43.8487 85.7854 41.9367 87.7611 38.1127 87.7611 34.2249 87.7611 32.3766 85.7854 32.3766 81.7701L32.3766 72.5288 34.1612 72.5288Z" fill="#8B8B8B" transform="matrix(1.00386 0 0 1 0 0.0238569)"/><path d="M47.4178 71.9552 58.2525 83.8096 58.2525 72.5288 59.9095 72.5288 59.9095 87.9523 49.0748 76.2253 49.0748 87.3149 47.4178 87.3149 47.4178 71.9552Z" fill="#8B8B8B" transform="matrix(1.00386 0 0 1 0 0.0238569)"/><path d="M63.4786 72.5288 65.2631 72.5288 65.2631 87.3149 63.4786 87.3149 63.4786 72.5288Z" fill="#8B8B8B" transform="matrix(1.00386 0 0 1 0 0.0238569)"/><path d="M66.7928 72.5288 68.7048 72.5288 73.0386 83.8733 77.3725 72.5288 79.2845 72.5288 73.0386 87.9523 66.7928 72.5288Z" fill="#8B8B8B" transform="matrix(1.00386 0 0 1 0 0.0238569)"/><path d="M80.8141 72.5288 88.6534 72.5288 88.6534 74.1221 82.5987 74.1221 82.5987 78.3923 88.6534 78.3923 88.6534 80.0493 82.5987 80.0493 82.5987 85.7216 88.6534 85.7216 88.6534 87.3787 80.8141 87.3787 80.8141 72.5288Z" fill="#8B8B8B" transform="matrix(1.00386 0 0 1 0 0.0238569)"/><path d="M91.6488 72.5288 94.6443 72.5288C94.8355 72.5288 94.963 72.5288 95.0904 72.5288 96.4926 72.5288 97.5761 72.5925 98.4683 73.2936 99.2969 73.9309 99.8705 75.1418 99.8705 76.6077 99.8705 79.0296 98.4683 80.3043 95.8552 80.3043 95.7278 80.3043 95.664 80.3043 95.5366 80.3043L101.209 87.3787 98.9782 87.3787 93.5608 80.3043 93.3059 80.3043 93.3059 87.3149 91.5851 87.3149 91.5851 72.5288ZM93.3696 78.9659 94.708 78.9659C97.0024 78.9659 98.1497 78.6472 98.1497 76.6077 98.1497 74.4408 97.0024 74.0584 94.708 74.0584L93.3696 74.0584 93.3696 78.9659Z" fill="#8B8B8B" transform="matrix(1.00386 0 0 1 0 0.0238569)"/><path d="M111.024 83.1723C111.024 85.9128 109.112 87.6974 106.308 87.6974 103.949 87.6974 102.356 86.4227 101.782 84.2557L103.376 83.4909C103.822 85.2755 104.842 86.2315 106.308 86.2315 108.092 86.2315 109.303 85.0843 109.303 83.4909 109.303 82.1525 108.538 81.1965 107.009 80.4955L105.224 79.7307C103.248 78.9021 102.292 77.6275 102.292 75.8429 102.292 73.7397 104.013 72.2101 106.435 72.2101 108.22 72.2101 109.558 72.9749 110.259 74.4408L108.793 75.3968C108.156 74.2496 107.327 73.676 106.308 73.676 104.969 73.676 104.077 74.5682 104.077 75.8429 104.077 76.9264 104.714 77.6275 106.053 78.2011L108.156 79.1571C110.068 79.9219 111.024 81.324 111.024 83.1723Z" fill="#8B8B8B" transform="matrix(1.00386 0 0 1 0 0.0238569)"/><path d="M113.382 72.5288 115.167 72.5288 115.167 87.3149 113.382 87.3149 113.382 72.5288Z" fill="#8B8B8B" transform="matrix(1.00386 0 0 1 0 0.0238569)"/><path d="M121.349 74.1858 117.142 74.1858 117.142 72.5288 127.276 72.5288 127.276 74.1858 123.133 74.1858 123.133 87.3149 121.349 87.3149 121.349 74.1858Z" fill="#8B8B8B" transform="matrix(1.00386 0 0 1 0 0.0238569)"/><path d="M132.502 80.5592 127.467 72.5288 129.507 72.5288 133.394 78.9659 137.218 72.5288 139.258 72.5288 134.223 80.5592 134.223 87.3149 132.438 87.3149 132.438 80.5592Z" fill="#8B8B8B" transform="matrix(1.00386 0 0 1 0 0.0238569)"/><path d="M149.838 74.1858 145.631 74.1858 145.631 72.5288 155.765 72.5288 155.765 74.1858 151.622 74.1858 151.622 87.3149 149.838 87.3149 149.838 74.1858Z" fill="#8B8B8B" transform="matrix(1.00386 0 0 1 0 0.0238569)"/><path d="M157.741 72.5288 165.58 72.5288 165.58 74.1221 159.525 74.1221 159.525 78.3923 165.58 78.3923 165.58 80.0493 159.525 80.0493 159.525 85.7216 165.58 85.7216 165.58 87.3787 157.741 87.3787 157.741 72.5288Z" fill="#8B8B8B" transform="matrix(1.00386 0 0 1 0 0.0238569)"/><path d="M175.65 73.8034C174.12 73.8034 172.527 74.4408 171.443 75.588 170.296 76.7989 169.722 78.2011 169.722 79.9856 169.722 81.324 170.041 82.5349 170.742 83.4909 171.953 85.148 173.738 86.104 175.713 86.104 177.562 86.104 179.219 85.3392 180.557 83.7459L180.557 86.104C179.091 87.1875 177.37 87.6974 175.586 87.6974 173.993 87.6974 172.527 87.2512 171.188 86.3589 169.021 84.8931 167.874 82.5987 167.874 79.9856 167.874 77.6912 168.639 75.8429 170.169 74.3133 171.698 72.8474 173.483 72.1464 175.713 72.1464 177.498 72.1464 179.028 72.6562 180.557 73.7397L180.557 76.0341C179.155 74.5045 177.562 73.8034 175.65 73.8034Z" fill="#8B8B8B" transform="matrix(1.00386 0 0 1 0 0.0238569)"/><path d="M183.553 72.5288 185.337 72.5288 185.337 78.2011 193.24 78.2011 193.24 72.5288 195.025 72.5288 195.025 87.3149 193.24 87.3149 193.24 79.8581 185.337 79.8581 185.337 87.3149 183.553 87.3149 183.553 72.5288Z" fill="#8B8B8B" transform="matrix(1.00386 0 0 1 0 0.0238569)"/><path d="M198.53 71.9552 209.365 83.8096 209.365 72.5288 211.022 72.5288 211.022 87.9523 200.187 76.2253 200.187 87.3149 198.53 87.3149 198.53 71.9552Z" fill="#8B8B8B" transform="matrix(1.00386 0 0 1 0 0.0238569)"/><path d="M214.591 72.5288 216.375 72.5288 216.375 87.3149 214.591 87.3149 214.591 72.5288Z" fill="#8B8B8B" transform="matrix(1.00386 0 0 1 0 0.0238569)"/><path d="M227.083 73.8034C225.553 73.8034 223.96 74.4408 222.876 75.588 221.729 76.7989 221.155 78.2011 221.155 79.9856 221.155 81.324 221.474 82.5349 222.175 83.4909 223.386 85.148 225.171 86.104 227.146 86.104 228.995 86.104 230.652 85.3392 231.99 83.7459L231.99 86.104C230.524 87.1875 228.803 87.6974 227.019 87.6974 225.426 87.6974 223.96 87.2512 222.621 86.3589 220.454 84.8931 219.307 82.5987 219.307 79.9856 219.307 77.6912 220.072 75.8429 221.602 74.3133 223.131 72.8474 224.916 72.1464 227.146 72.1464 228.931 72.1464 230.46 72.6562 231.99 73.7397L231.99 76.0341C230.588 74.5045 228.995 73.8034 227.083 73.8034Z" fill="#8B8B8B" transform="matrix(1.00386 0 0 1 0 0.0238569)"/><path d="M246.394 87.3149 244.482 87.3149 242.57 82.7899 236.77 82.7899 234.858 87.3149 232.946 87.3149 239.638 71.8914 246.394 87.3149ZM237.344 81.2603 242.06 81.2603 239.702 75.7792 237.344 81.2603Z" fill="#8B8B8B" transform="matrix(1.00386 0 0 1 0 0.0238569)"/><path d="M247.923 72.5288 249.708 72.5288 249.708 85.6579 255.317 85.6579 255.317 87.3149 247.923 87.3149 247.923 72.5288Z" fill="#8B8B8B" transform="matrix(1.00386 0 0 1 0 0.0238569)"/><path d="M270.613 73.8034C269.083 73.8034 267.49 74.4408 266.406 75.588 265.259 76.7989 264.685 78.2011 264.685 79.9856 264.685 81.324 265.004 82.5349 265.705 83.4909 266.916 85.148 268.701 86.104 270.676 86.104 272.525 86.104 274.182 85.3392 275.52 83.7459L275.52 86.104C274.054 87.1875 272.333 87.6974 270.549 87.6974 268.956 87.6974 267.49 87.2512 266.151 86.3589 263.984 84.8931 262.837 82.5987 262.837 79.9856 262.837 77.6912 263.602 75.8429 265.132 74.3133 266.661 72.8474 268.446 72.1464 270.676 72.1464 272.461 72.1464 273.99 72.6562 275.52 73.7397L275.52 76.0341C274.118 74.5045 272.525 73.8034 270.613 73.8034Z" fill="#8B8B8B" transform="matrix(1.00386 0 0 1 0 0.0238569)"/><path d="M291.39 85.4667C289.86 86.9325 287.821 87.7611 285.781 87.7611 283.678 87.7611 281.702 86.9325 280.173 85.4667 278.643 84.0008 277.878 82.0888 277.878 79.9856 277.878 77.8824 278.707 75.9704 280.173 74.4408 281.639 72.9749 283.678 72.2101 285.781 72.2101 287.884 72.2101 289.924 73.0386 291.39 74.4408 292.919 75.9066 293.684 77.8187 293.684 79.9856 293.684 82.0888 292.856 84.0008 291.39 85.4667ZM290.051 84.2557C291.199 83.1085 291.836 81.5789 291.836 79.9219 291.836 78.2648 291.199 76.7352 290.051 75.588 288.904 74.4408 287.375 73.8034 285.781 73.8034 284.188 73.8034 282.658 74.4408 281.511 75.588 280.364 76.7989 279.727 78.2648 279.727 79.9219 279.727 81.5789 280.364 83.0448 281.511 84.2557 282.722 85.4667 284.188 86.0403 285.781 86.0403 287.375 86.104 288.904 85.4667 290.051 84.2557Z" fill="#8B8B8B" transform="matrix(1.00386 0 0 1 0 0.0238569)"/><path d="M296.552 72.5288 298.337 72.5288 298.337 85.6579 303.945 85.6579 303.945 87.3149 296.616 87.3149 296.616 72.5288Z" fill="#8B8B8B" transform="matrix(1.00386 0 0 1 0 0.0238569)"/><path d="M306.048 72.5288 307.833 72.5288 307.833 85.6579 313.442 85.6579 313.442 87.3149 306.112 87.3149 306.112 72.5288Z" fill="#8B8B8B" transform="matrix(1.00386 0 0 1 0 0.0238569)"/><path d="M315.481 72.5288 323.32 72.5288 323.32 74.1221 317.266 74.1221 317.266 78.3923 323.32 78.3923 323.32 80.0493 317.266 80.0493 317.266 85.7216 323.32 85.7216 323.32 87.3787 315.481 87.3787 315.481 72.5288Z" fill="#8B8B8B" transform="matrix(1.00386 0 0 1 0 0.0238569)"/><path d="M340.528 79.6669C340.528 79.8581 340.528 79.9856 340.528 80.1768 340.528 84.8931 337.66 87.6974 333.135 87.6974 331.669 87.6974 330.395 87.3787 329.375 86.8051 326.953 85.4667 325.551 83.0448 325.551 80.0493 325.551 77.5637 326.316 75.588 327.909 74.0584 329.247 72.7837 331.032 72.1464 333.199 72.1464 336.003 72.1464 338.106 73.1661 339.509 75.2693L338.043 76.4802C336.959 74.6957 335.366 73.8034 333.263 73.8034 329.821 73.8034 327.463 76.3528 327.463 80.1131 327.463 83.6821 329.885 86.1677 333.263 86.1677 336.194 86.1677 338.425 84.192 338.616 81.324L334.41 81.324 334.41 79.6669 340.528 79.6669Z" fill="#8B8B8B" transform="matrix(1.00386 0 0 1 0 0.0238569)"/><path d="M343.141 72.5288 350.981 72.5288 350.981 74.1221 344.926 74.1221 344.926 78.3923 350.981 78.3923 350.981 80.0493 344.926 80.0493 344.926 85.7216 350.981 85.7216 350.981 87.3787 343.141 87.3787 343.141 72.5288Z" fill="#8B8B8B" transform="matrix(1.00386 0 0 1 0 0.0238569)"/><path d="M118.863 55.5119C119.5 55.1932 120.201 54.8108 120.775 54.4284L120.775 54.4284C121.412 54.046 121.986 53.5999 122.56 53.2175 122.687 53.1538 122.751 53.09 122.878 52.9626 123.452 52.5164 124.025 52.0703 124.599 51.5604L124.599 51.5604C119.755 47.4815 116.186 42.0004 114.912 35.4358 112.681 24.155 116.824 13.7664 124.344 7.07442 122.751 5.73602 121.03 4.58881 119.245 3.63281 119.245 3.63281 119.245 3.63281 119.245 3.63281 118.863 3.44161 118.544 3.25041 118.162 3.05921 118.162 3.05921 118.162 3.05921 118.162 3.05921 117.78 2.86801 117.397 2.67681 117.015 2.54934L117.015 2.54934C116.696 2.42187 116.441 2.29441 116.123 2.16694 116.059 2.16694 115.995 2.23067 115.995 2.23067L115.74 2.29441C115.676 2.29441 115.613 2.23067 115.549 2.23067 112.553 3.50534 109.877 5.28988 107.455 7.45682L114.465 7.45682 114.465 15.9971 102.165 15.9971 102.165 44.8684C105.479 50.0946 110.578 54.1735 116.377 56.5317 116.377 56.5317 116.441 56.5317 116.441 56.5317L116.569 56.4679 116.696 56.5317C116.696 56.5317 116.76 56.5317 116.76 56.5317 117.397 56.2767 117.971 55.9581 118.608 55.6394 118.608 55.6394 118.736 55.5756 118.863 55.5119Z" fill="#07797F" transform="matrix(1.00386 0 0 1 0 0.0238569)"/><path d="M42.4465 7.13816 42.4465 33.1414C42.4465 40.9169 45.3783 44.8684 50.6044 44.8684 55.9581 44.8684 58.8898 41.1081 58.8898 33.1414L58.8898 7.13816 69.0872 7.13816 69.0872 32.4404C69.0872 46.3343 62.0765 52.9626 50.2858 52.9626 38.9412 52.9626 32.2492 46.653 32.2492 32.3129L32.2492 7.13816 42.4465 7.13816Z" fill="#FFFFFF" transform="matrix(1.00386 0 0 1 0 0.0238569)"/><path d="M91.9038 15.9971 79.7944 15.9971 79.7944 7.45682 114.465 7.45682 114.465 15.9971 102.165 15.9971 102.165 52.5164 91.9038 52.5164 91.9038 15.9971Z" fill="#FFFFFF" transform="matrix(1.00386 0 0 1 0 0.0238569)"/><path d="M157.294 50.7319C155.446 51.6879 151.176 52.6439 145.695 52.6439 130.08 52.6439 122.05 42.9564 122.05 30.0822 122.05 14.7224 133.012 6.11842 146.651 6.11842 151.941 6.11842 155.956 7.20189 157.741 8.09416L155.637 16.1883C153.534 15.2961 150.666 14.5312 147.097 14.5312 139.003 14.5312 132.693 19.4387 132.693 29.4449 132.693 38.4951 138.047 44.1673 147.161 44.1673 150.22 44.1673 153.662 43.53 155.637 42.7015L157.294 50.7319Z" fill="#FFFFFF" transform="matrix(1.00386 0 0 1 0 0.0238569)"/><path d="M186.421 7.52056 191.838 7.52056 191.838 47.6727 208.919 47.6727 208.919 52.8351 186.421 52.8351 186.421 7.52056Z" fill="#0E828B" transform="matrix(1.00386 0 0 1 0 0.0238569)"/><path d="M217.14 7.52056 241.04 7.52056 241.04 12.428 222.558 12.428 222.558 25.4934 241.04 25.4934 241.04 30.5284 222.558 30.5284 222.558 47.8639 241.04 47.8639 241.04 52.8351 217.14 52.8351 217.14 7.52056Z" fill="#0E828B" transform="matrix(1.00386 0 0 1 0 0.0238569)"/><path d="M250.09 7.52056 273.99 7.52056 273.99 12.428 255.508 12.428 255.508 25.4934 273.99 25.4934 273.99 30.5284 255.508 30.5284 255.508 47.8639 273.99 47.8639 273.99 52.8351 250.09 52.8351 250.09 7.52056Z" fill="#0E828B" transform="matrix(1.00386 0 0 1 0 0.0238569)"/><path d="M283.296 7.52056 291.963 7.52056C300.44 7.52056 307.004 7.52056 312.486 11.7907 317.712 15.8059 320.389 22.1155 320.389 30.2097 320.389 38.3039 317.648 44.6135 312.486 48.565 307.259 52.6439 301.268 52.8351 293.939 52.8351 293.302 52.8351 292.601 52.8351 291.963 52.8351L283.296 52.8351 283.296 7.52056ZM292.218 47.8002C299.93 47.8002 305.347 47.7364 309.108 44.5497 312.804 41.4905 314.78 36.5831 314.78 30.146 314.78 23.7089 312.804 18.9289 309.108 15.8059 305.347 12.6192 299.994 12.4918 292.218 12.4918L288.777 12.4918 288.777 47.8002 292.218 47.8002Z" fill="#0E828B" transform="matrix(1.00386 0 0 1 0 0.0238569)"/><path d="M352.638 40.0884C352.638 48.3738 346.902 53.9823 338.106 53.9823 330.968 53.9823 325.933 50.1583 324.213 43.4663L329.12 41.0444C330.458 46.5255 333.581 49.3935 338.106 49.3935 343.524 49.3935 347.157 45.8881 347.157 40.9807 347.157 36.9017 344.798 33.97 340.146 31.9305L334.665 29.5724C328.674 27.023 325.742 23.1353 325.742 17.5905 325.742 11.2808 330.968 6.43709 338.489 6.43709 343.906 6.43709 347.985 8.79523 350.216 13.2566L345.754 16.1246C343.779 12.683 341.293 10.8984 338.106 10.8984 334.027 10.8984 331.223 13.639 331.223 17.463 331.223 20.7134 333.199 22.9441 337.278 24.7286L343.715 27.5966C349.642 30.2097 352.638 34.4161 352.638 40.0884Z" fill="#0E828B" transform="matrix(1.00386 0 0 1 0 0.0238569)"/><path d="M29.3812 58.8261 43.9761 58.8261C39.5148 58.3799 35.1809 57.0415 31.3569 54.8746L29.3812 58.8261Z" fill="#07797F" transform="matrix(1.00386 0 0 1 0 0.0238569)"/><path d="M16.8894 35.4996C13.384 17.7817 25.6846 2.03947 42.1916 0L29.3174 0C20.4585 0 12.2368 4.01521 6.62829 10.8347 1.01974 17.6542-1.1472 26.7681 0.573602 35.5633 1.91201 42.0641 5.41735 47.8002 10.8347 52.0703 16.0609 56.213 22.6254 58.5711 29.3174 58.8261L29.3812 58.8261 31.3569 54.8746C24.0913 50.7956 18.6102 43.9761 16.8894 35.4996Z" fill="#009BA8" transform="matrix(1.00386 0 0 1 0 0.0238569)"/><path d="M16.8894 35.4996C18.6102 43.9761 24.0913 50.7956 31.3569 54.8746L35.6271 46.3343C33.3964 43.0201 32.1854 38.3676 32.1854 32.3129L32.1854 7.13816 42.4465 7.13816 42.4465 32.6316 58.7623 0 42.1916 0C25.6846 2.03947 13.384 17.7817 16.8894 35.4996Z" fill="#07797F" transform="matrix(1.00386 0 0 1 0 0.0238569)"/><path d="M50.2858 52.9626C49.8396 52.9626 49.3298 52.9626 48.8836 52.8988L45.9519 58.7623 58.8898 58.7623 58.8898 51.433C56.4042 52.4527 53.5362 52.9626 50.2858 52.9626Z" fill="#00383F" transform="matrix(1.00386 0 0 1 0 0.0238569)"/><path d="M58.8898 34.0337 58.8898 32.8865 53.09 44.486C56.6591 43.4663 58.6986 40.0884 58.8898 34.0337Z" fill="#00383F" transform="matrix(1.00386 0 0 1 0 0.0238569)"/><path d="M35.6271 46.3343 31.3569 54.8746C35.1809 56.9778 39.5148 58.3799 43.9761 58.8261 44.0399 58.8261 44.1036 58.8261 44.1673 58.8261L45.9519 58.8261 48.8836 52.9626C42.9564 52.6439 38.4951 50.5407 35.6271 46.3343Z" fill="#00535A" transform="matrix(1.00386 0 0 1 0 0.0238569)"/><path d="M42.4465 33.0777C42.4465 40.8532 45.3783 44.8047 50.6044 44.8047 51.4967 44.8047 52.3252 44.6772 53.09 44.486L58.8898 32.8865 58.8898 32.8865 58.8898 0 58.7623 0 42.4465 32.6953 42.4465 33.0777Z" fill="#00535A" transform="matrix(1.00386 0 0 1 0 0.0238569)"/><path d="M58.8898 7.13816 69.0872 7.13816 69.0872 12.5555 75.333 0 58.8898 0 58.8898 7.13816Z" fill="#009BA8" transform="matrix(1.00386 0 0 1 0 0.0238569)"/><path d="M127.403 58.8261C128.232 58.8261 137.983 58.8261 142.636 58.8261 137.983 58.4437 133.331 57.0415 129.379 54.8746L127.403 58.8261Z" fill="#07797F" transform="matrix(1.00386 0 0 1 0 0.0238569)"/><path d="M115.039 56.0218C114.975 56.0218 114.912 55.9581 114.912 55.9581 114.912 55.9581 114.975 55.9581 115.039 56.0218Z" fill="#009BA8" transform="matrix(1.00386 0 0 1 0 0.0238569)"/><path d="M115.676 56.2767C115.421 56.1493 115.23 56.0855 114.975 55.9581 115.23 56.0855 115.485 56.213 115.676 56.2767Z" fill="#009BA8" transform="matrix(1.00386 0 0 1 0 0.0238569)"/><path d="M116.123 56.4679C115.995 56.4042 115.868 56.3405 115.676 56.2767 115.868 56.3405 115.995 56.4042 116.123 56.4679Z" fill="#009BA8" transform="matrix(1.00386 0 0 1 0 0.0238569)"/><path d="M114.083 55.5119C113.828 55.3844 113.573 55.257 113.255 55.0658 113.509 55.257 113.764 55.3844 114.083 55.5119Z" fill="#009BA8" transform="matrix(1.00386 0 0 1 0 0.0238569)"/><path d="M124.599 51.5604 124.599 51.5604 124.599 51.5604C124.025 52.0703 123.452 52.5164 122.878 52.9626 122.751 53.0263 122.687 53.09 122.56 53.2175 121.986 53.6636 121.412 54.046 120.775 54.4284L120.775 54.4284C120.138 54.8108 119.5 55.1932 118.863 55.5119 118.736 55.5756 118.672 55.6394 118.544 55.7031 117.971 56.0218 117.333 56.2767 116.696 56.5954 120.074 57.9338 123.707 58.6986 127.34 58.8261 127.34 58.8261 127.34 58.8261 127.403 58.8261L129.379 54.8746C127.658 53.9186 126.065 52.8351 124.599 51.5604Z" fill="#009BA8" transform="matrix(1.00386 0 0 1 0 0.0238569)"/><path d="M116.123 56.4679C116.186 56.4679 116.25 56.5317 116.377 56.5317L116.377 56.5317C116.25 56.5317 116.186 56.5317 116.123 56.4679Z" fill="#009BA8" transform="matrix(1.00386 0 0 1 0 0.0238569)"/><path d="M114.848 55.8943C114.657 55.8306 114.465 55.7031 114.274 55.5756 114.465 55.7031 114.657 55.8306 114.848 55.8943Z" fill="#009BA8" transform="matrix(1.00386 0 0 1 0 0.0238569)"/><path d="M114.274 55.6394C114.211 55.5756 114.147 55.5756 114.083 55.5119 114.147 55.5756 114.211 55.5756 114.274 55.6394Z" fill="#009BA8" transform="matrix(1.00386 0 0 1 0 0.0238569)"/><path d="M117.015 2.54934C117.397 2.74054 117.78 2.86801 118.162 3.05921 118.162 3.05921 118.162 3.05921 118.162 3.05921 118.544 3.25041 118.927 3.44161 119.245 3.63281 119.245 3.63281 119.245 3.63281 119.245 3.63281 121.094 4.65255 122.751 5.79975 124.344 7.07442 128.678 3.25041 134.159 0.701069 140.214-0.0637335L127.276-0.0637335C123.388-0.0637335 119.628 0.637335 116.059 2.10321 116.441 2.29441 116.696 2.42187 117.015 2.54934L117.015 2.54934Z" fill="#009BA8" transform="matrix(1.00386 0 0 1 0 0.0238569)"/><path d="M91.9038 15.9971 79.7944 15.9971 79.7944 7.45682 101.273 7.45682 104.969 0.127467C104.65 0.127467 75.3968 -4.5993e-16 75.3968 -4.5993e-16L69.1509 12.5555 69.1509 32.4404C69.1509 42.5103 65.4543 48.7562 58.9535 51.433L58.9535 58.7623 75.588 58.7623 91.9038 26.1308 91.9038 15.9971Z" fill="#07797F" transform="matrix(1.00386 0 0 1 0 0.0238569)"/><path d="M102.101 44.8684 102.101 52.5802 91.84 52.5802 91.84 26.1308 75.5242 58.7623 105.543 58.7623C111.151 58.5074 116.441 56.5954 116.696 56.5317 110.833 54.1735 105.479 50.1583 102.101 44.8684Z" fill="#009BA8" transform="matrix(1.00386 0 0 1 0 0.0238569)"/><path d="M129.315 12.428C127.913 10.4523 126.256 8.66776 124.344 7.13816 116.76 13.7664 112.617 24.2187 114.912 35.4996 116.186 42.0004 119.755 47.5452 124.599 51.6242 126.192 50.222 127.595 48.6924 128.805 47.0354 124.344 42.9564 122.113 37.0292 122.113 30.2097 122.113 22.4979 124.854 16.507 129.315 12.428Z" fill="#00535A" transform="matrix(1.00386 0 0 1 0 0.0238569)"/><path d="M133.968 22.8803C133.203 24.7923 132.821 26.9593 132.821 29.5086 132.821 31.8668 133.203 34.0337 133.904 35.9457 134.796 31.9305 134.924 27.6604 134.032 23.199 134.032 23.1353 133.968 23.0078 133.968 22.8803Z" fill="#00535A" transform="matrix(1.00386 0 0 1 0 0.0238569)"/><path d="M129.315 12.428C133.777 8.34909 139.959 6.18215 146.778 6.18215 149.328 6.18215 151.558 6.43709 153.407 6.81949L156.785 0 140.214 0C134.159 0.764803 128.678 3.31414 124.344 7.13816 126.192 8.66776 127.849 10.4523 129.315 12.428Z" fill="#07797F" transform="matrix(1.00386 0 0 1 0 0.0238569)"/><path d="M124.599 51.5604C126.065 52.7714 127.658 53.9186 129.315 54.8108L132.056 49.3298C130.845 48.6287 129.761 47.8002 128.805 46.9079 127.595 48.6287 126.192 50.222 124.599 51.5604Z" fill="#07797F" transform="matrix(1.00386 0 0 1 0 0.0238569)"/><path d="M133.968 22.8803C133.968 23.0078 134.032 23.1353 134.032 23.199 134.924 27.6604 134.796 31.9305 133.904 35.9457 134.542 37.6028 135.434 39.0687 136.645 40.2796L149.455 14.7224C148.754 14.6587 148.053 14.595 147.224 14.595 141.17 14.6587 136.135 17.3355 133.968 22.8803Z" fill="#07797F" transform="matrix(1.00386 0 0 1 0 0.0238569)"/><path d="M147.033 52.7076 143.974 58.8898C144.611 58.8898 144.994 58.8898 145.058 58.8898L156.976 58.8898 156.976 50.9231C155 51.7516 151.495 52.5802 147.033 52.7076Z" fill="#00383F" transform="matrix(1.00386 0 0 1 0 0.0238569)"/><path d="M155.765 42.8289 156.912 48.6287 156.912 32.8865 151.431 43.9124C153.088 43.6575 154.618 43.2751 155.765 42.8289Z" fill="#00383F" transform="matrix(1.00386 0 0 1 0 0.0238569)"/><path d="M156.912 0 156.912 0 156.912 7.77549C157.294 7.90296 157.613 8.03043 157.868 8.22163L156.912 11.9182 156.912 32.8865 173.355 0 173.355 0 156.912 0Z" fill="#009BA8" transform="matrix(1.00386 0 0 1 0 0.0238569)"/><path d="M173.355 0 156.912 32.8865 156.912 48.565 157.358 50.7319C157.231 50.7956 157.103 50.8594 156.912 50.9231L156.912 58.8261 173.355 58.8261 173.355 0Z" fill="#07797F" transform="matrix(1.00386 0 0 1 0 0.0238569)"/><path d="M149.391 14.7224 136.581 40.2796C139.067 42.8289 142.699 44.2311 147.224 44.2311 148.563 44.2311 150.029 44.1036 151.367 43.9124L156.848 32.8865 156.848 32.8865 156.848 11.9182 155.701 16.3158C154.171 15.6147 152.005 14.9774 149.391 14.7224Z" fill="#00535A" transform="matrix(1.00386 0 0 1 0 0.0238569)"/><path d="M145.759 52.7076C140.278 52.7076 135.689 51.4967 132.12 49.3935L129.379 54.8746C133.394 57.1053 137.919 58.5074 142.636 58.8261 143.146 58.8261 143.592 58.8261 143.91 58.8261L146.97 52.6439C146.587 52.7076 146.141 52.7076 145.759 52.7076Z" fill="#00535A" transform="matrix(1.00386 0 0 1 0 0.0238569)"/><path d="M156.912 7.77549 156.912 0 156.785 0 153.407 6.81949C154.809 7.07442 156.02 7.45682 156.912 7.77549Z" fill="#00535A" transform="matrix(1.00386 0 0 1 0 0.0238569)"/><path d="M107.455 7.45682C109.813 5.28988 113.191 3.50534 116.123 2.16694 113.637 0.956003 106.69 0.0637335 104.905 0.0637335L101.209 7.39309 107.455 7.39309Z" fill="#009BA8" transform="matrix(1.00386 0 0 1 0 0.0238569)"/><path d="M101.209 7.45682 104.905 0.127467" fill="#07797F" transform="matrix(1.00386 0 0 1 0 0.0238569)"/></g></svg>